<svg width="6" height="11" viewBox="0 0 6 11" fill="none" xmlns="http://www.w3.org/2000/svg">
<path d="M0.0784063 1.02501C0.0282258 0.975239 0 0.907489 0 0.836812C0 0.766135 0.0282258 0.698385 0.0784063 0.648615L0.640348 0.0866728C0.688449 0.0354209 0.755607 0.00634766 0.825895 0.00634766C0.896183 0.00634766 0.963341 0.0354209 1.01144 0.0866728L5.88337 4.9586C5.95796 5.0331 5.99991 5.13416 6 5.23957L6 5.37741C5.99991 5.48282 5.95796 5.58389 5.88337 5.65838L1.01144 10.5303C0.963341 10.5816 0.896183 10.6106 0.825895 10.6106C0.755607 10.6106 0.688449 10.5816 0.640348 10.5303L0.0784063 9.96837C0.0282258 9.9186 0 9.85085 0 9.78017C0 9.70949 0.0282258 9.64174 0.0784063 9.59197L4.36189 5.30849L0.0784063 1.02501Z" fill="#474747"/>
</svg>
