<svg width="18" height="20" viewBox="0 0 18 20" fill="none" xmlns="http://www.w3.org/2000/svg">
<path d="M16.1532 7.63418C15.2358 7.00672 14.6605 6.16776 14.2005 4.87588C14.0295 4.39565 13.6029 4.08513 13.1137 4.08513C12.5878 4.08513 12.1069 4.42426 11.7945 5.01539C11.6191 5.34197 11.5113 5.70055 11.4775 6.06972C11.1535 5.47891 10.4952 5.35322 10.1831 5.77335C10.1831 5.77335 7.61605 3.82187 6.74044 3.20053C5.57682 2.37571 4.03551 3.28924 4.07408 4.23268C2.60477 3.43614 0.991771 4.84245 1.48872 6.31626C0.920411 6.21212 -0.533151 7.71872 0.994985 8.87591C-0.0635238 8.98456 -0.474648 10.6419 0.755511 11.3963C0.755511 11.3963 0.761297 11.6255 0.77769 11.738C-0.0329869 11.9843 -0.312642 13.5169 0.471356 14.0007C0.471356 14.0007 6.12552 17.6111 8.07186 18.6973C9.1294 19.2874 10.9504 19.5192 12.5727 18.9923C14.1481 18.829 15.4846 17.9939 16.5586 16.5057C19.5142 12.4098 17.1728 8.33171 16.1532 7.63418ZM15.807 16.1064C14.5762 17.8358 12.8086 18.0152 11.456 18.0152C9.24801 18.0152 7.89924 16.9566 7.89924 16.9566L1.83941 12.432C0.692187 11.64 1.38297 10.378 2.18786 10.4012L7.00853 13.686L7.60191 13.7229C7.60191 13.7229 3.29619 10.6319 1.9021 9.54387C1.0882 8.9087 1.35564 7.69557 2.40933 7.45449L8.4383 11.7824L9.03104 11.8194L2.59095 6.82479C1.23028 5.83024 2.59577 3.95495 3.91497 4.90996C5.43635 6.01122 10.0134 9.50176 10.0134 9.50176L10.6067 9.53904L4.58132 4.54801C4.52924 3.77784 5.55368 3.10827 6.37271 3.72094C8.01978 4.95303 12.9636 8.64544 12.9636 8.64544C12.8363 8.28896 12.7726 8.02087 12.7726 8.02087C12.7726 8.02087 11.8334 6.45931 12.3422 5.32237C12.789 4.32525 13.6929 4.48726 13.8752 5.0231C14.3596 6.44966 14.8614 7.29634 15.8652 8.00994C17.1471 8.92123 18.458 12.3832 15.807 16.1064Z" fill="black"/>
<path d="M13.5129 0.285762L10.7453 0L11.6897 3.94088L13.5129 0.285762Z" fill="black"/>
<path d="M15.8029 1.04919L14.3965 4.32565L17.6769 3.44683L15.8029 1.04919Z" fill="black"/>
<path d="M8.07092 0.497925L6.07477 2.14789L8.94975 4.02125L8.07092 0.497925Z" fill="black"/>
</svg>
