<svg width="70" height="70" viewBox="0 0 70 70" fill="none" xmlns="http://www.w3.org/2000/svg">
<path fill-rule="evenodd" clip-rule="evenodd" d="M35 0C6.1775 0 0 6.1775 0 35C0 63.8225 6.1775 70 35 70C63.8225 70 70 63.8225 70 35C70 6.1775 63.8225 0 35 0ZM25.76 22.2539V46.0422H36.8851C41.4724 46.0422 44.9399 43.0866 44.9399 38.9777C44.9399 37.3547 44.42 36.0101 43.4778 34.9737C42.8299 34.2611 41.9823 33.6942 40.9667 33.283C41.6629 32.5111 42.1014 31.6107 42.2954 30.5817C42.373 30.1692 42.4115 29.736 42.4115 29.2822C42.4115 25.1373 38.9439 22.2539 34.3567 22.2539H25.76ZM46.3396 33.7391C45.9393 33.1782 45.4796 32.6785 44.973 32.2372C45.2775 31.2984 45.4216 30.3061 45.4216 29.2822C45.4216 23.0755 40.1716 19.2503 34.3567 19.2503H22.75V49.0457H36.8851C42.7326 49.0457 47.95 45.1202 47.95 38.9777C47.95 37.0449 47.4188 35.2508 46.3396 33.7391ZM33.9593 31.6611C34.2373 31.6611 34.4948 31.6319 34.7299 31.5761C35.7474 31.3346 36.3433 30.5953 36.3433 29.5706C36.3433 28.5458 35.7474 27.8064 34.7299 27.5651C34.4948 27.5093 34.2373 27.4801 33.9593 27.4801H31.7199V31.6611H33.9593ZM36.6512 37.8022C36.6541 37.8016 36.6555 37.8012 36.6554 37.8011C36.6552 37.801 36.6506 37.8017 36.6422 37.8038C36.6461 37.8032 36.6491 37.8027 36.6512 37.8022ZM36.6422 39.6472C36.6513 39.6486 36.6556 39.6496 36.6554 39.6498C36.6552 39.65 36.6506 39.6493 36.6422 39.6472ZM38.8717 38.7255C38.8717 40.1312 37.9687 40.816 36.4878 40.816H31.7199V36.635H36.4878C37.9687 36.635 38.8717 37.3198 38.8717 38.7255Z" fill="white"/>
</svg>
