<svg width="21" height="20" viewBox="0 0 21 20" fill="none" xmlns="http://www.w3.org/2000/svg">
<path d="M20.0015 10.0082C19.9982 14.3106 17.2434 18.1287 13.1615 19.4882C13.0087 19.5353 12.8427 19.5095 12.7115 19.4182C12.5802 19.3227 12.5022 19.1705 12.5015 19.0082V16.3382C12.5231 15.6191 12.3504 14.9074 12.0015 14.2782C11.9487 14.1959 11.9487 14.0905 12.0015 14.0082C12.042 13.9323 12.1163 13.8804 12.2015 13.8682C14.6415 13.6182 16.0015 12.6482 16.0015 10.0082C16.0603 8.77557 15.633 7.56907 14.8115 6.64821C14.9313 6.25922 14.9953 5.85519 15.0015 5.44821C14.9972 5.08333 14.9468 4.72045 14.8515 4.36821C14.7886 4.13333 14.563 3.98009 14.3215 4.00821C13.4052 4.13826 12.5523 4.55073 11.8815 5.18821C10.6396 4.94827 9.36332 4.94827 8.12147 5.18821C7.45062 4.55073 6.59772 4.13826 5.68147 4.00821C5.43996 3.98009 5.21435 4.13333 5.15147 4.36821C5.05616 4.72045 5.00576 5.08333 5.00147 5.44821C5.00769 5.85519 5.07166 6.25922 5.19147 6.64821C4.36995 7.56907 3.94265 8.77557 4.00147 10.0082C4.00147 12.7882 5.51147 13.7182 8.28147 13.9482C7.93762 14.3988 7.70158 14.9222 7.59147 15.4782C7.59147 15.4782 7.59147 15.5482 7.59147 15.5982C7.58666 15.6448 7.58666 15.6917 7.59147 15.7382C7.54986 16.0526 7.2672 16.2778 6.95147 16.2482C6.80093 16.2411 6.65393 16.2001 6.52147 16.1282C5.97668 15.7964 5.49575 15.3697 5.10147 14.8682C4.85026 14.5834 4.58317 14.3129 4.30147 14.0582C4.12248 13.9033 3.92416 13.7722 3.71147 13.6682C3.56243 13.5845 3.38052 13.5845 3.23147 13.6682C3.08839 13.76 3.00176 13.9182 3.00147 14.0882V14.1482C3.00176 14.3182 3.08839 14.4764 3.23147 14.5682C3.59044 14.8687 3.90077 15.2229 4.15147 15.6182C4.57485 16.2816 5.11331 16.8641 5.74147 17.3382C6.15535 17.6157 6.64321 17.762 7.14147 17.7582H7.50147V19.0082C7.5007 19.1705 7.42272 19.3227 7.29147 19.4182C7.16021 19.5095 6.99426 19.5353 6.84147 19.4882C1.99352 17.8735 -0.857286 12.8637 0.230845 7.87112C1.31897 2.87854 5.99597 -0.490604 11.0762 0.0585358C16.1563 0.607676 20.0054 4.89843 20.0015 10.0082Z" fill="#474747"/>
</svg>
