<svg width="20" height="17" viewBox="0 0 20 17" fill="none" xmlns="http://www.w3.org/2000/svg">
<path d="M19.97 2.46378C19.454 3.15213 18.8302 3.75258 18.1228 4.24195C18.1228 4.42177 18.1228 4.60158 18.1228 4.79139C18.1285 8.0568 16.8241 11.1879 14.5022 13.4828C12.1802 15.7777 9.03494 17.0443 5.77138 16.9988C3.88465 17.0051 2.02208 16.5743 0.329569 15.7401C0.238309 15.7003 0.179448 15.61 0.179794 15.5103V15.4005C0.179794 15.257 0.296025 15.1407 0.439404 15.1407C2.29402 15.0796 4.08246 14.4366 5.55171 13.3026C3.87303 13.2688 2.36265 12.2744 1.66756 10.7453C1.63245 10.6617 1.64338 10.5659 1.6964 10.4925C1.74943 10.419 1.83688 10.3785 1.92717 10.3856C2.43735 10.4369 2.95264 10.3894 3.44488 10.2458C1.59176 9.86109 0.199341 8.32265 6.47272e-05 6.43969C-0.00701784 6.34936 0.0334619 6.26187 0.10688 6.20882C0.180298 6.15577 0.276043 6.14483 0.359524 6.17996C0.856822 6.39939 1.39365 6.51496 1.93715 6.51961C0.313374 5.45384 -0.38799 3.42672 0.229719 1.58469C0.293481 1.4057 0.44667 1.27347 0.63299 1.2366C0.819311 1.19972 1.01128 1.26365 1.13835 1.40487C3.32954 3.73695 6.34026 5.12662 9.53572 5.28088C9.45387 4.95427 9.41361 4.61862 9.4159 4.28191C9.44578 2.51636 10.5382 0.943567 12.1817 0.299861C13.8252 -0.343846 15.6946 0.0689272 16.9146 1.34494C17.7463 1.18651 18.5502 0.907164 19.301 0.515789C19.356 0.481454 19.4258 0.481454 19.4808 0.515789C19.5151 0.57081 19.5151 0.640583 19.4808 0.695604C19.1171 1.52835 18.5028 2.2268 17.7234 2.69355C18.4059 2.6144 19.0764 2.45341 19.7204 2.21404C19.7746 2.17713 19.8459 2.17713 19.9001 2.21404C19.9455 2.23482 19.9795 2.27457 19.993 2.32269C20.0064 2.37081 19.998 2.42242 19.97 2.46378Z" fill="#474747"/>
</svg>
